<svg xmlns="http://www.w3.org/2000/svg" viewBox="0 0 400 400" width="400" height="400">
	<path id="Layer" style="fill: #18a497" d="M64.97,0h269.47c35.91,0 64.94,29.01 64.94,64.92v269.4c0,35.91 -29.03,64.92 -64.94,64.92h-228.05l-0.76,-172.02h-0.09c0,-0.41 0,-0.8 0,-1.22c0,-65.22 51.79,-117.93 115.86,-117.93c38.44,0 69.52,31.63 69.52,70.76c0,39.13 -31.08,70.76 -69.52,70.76c-12.8,0 -23.17,-10.55 -23.17,-23.59c0,-13.03 10.37,-23.59 23.17,-23.59c12.8,0 23.17,-10.55 23.17,-23.59c0,-13.03 -10.37,-23.59 -23.17,-23.59c-38.44,0 -69.52,31.63 -69.52,70.76c0,39.13 31.08,70.76 69.52,70.76c64.07,0 115.86,-52.71 115.86,-117.93c0,-65.22 -51.79,-117.93 -115.86,-117.93c-89.7,0 -162.23,73.79 -162.23,165.1c0,0.48 0,0.94 0,1.43h-0.39l0.76,171.59c-33.38,-2.74 -59.54,-30.62 -59.54,-64.69v-269.4c0,-35.91 29.03,-64.92 64.94,-64.92z" />
</svg>