<svg xmlns="http://www.w3.org/2000/svg" viewBox="0 0 2000 600" width="2000" height="600">
	<defs>
	</defs>
	<path style="fill: #0f171d" d="M0,600h2000v-600h-2000z" />
	<path style="fill: #18a497" d="M180.4,115.39h246c32.78,0 59.29,26.5 59.29,59.3v246.1c0,32.8 -26.51,59.3 -59.29,59.3h-208.18l-0.69,-157.14h-0.08c0,-0.38 0,-0.74 0,-1.11c0,-59.58 47.28,-107.73 105.77,-107.73c35.09,0 63.46,28.9 63.46,64.64c0,35.74 -28.37,64.64 -63.46,64.64c-11.69,0 -21.15,-9.64 -21.15,-21.55c0,-11.91 9.46,-21.55 21.15,-21.55c11.69,0 21.15,-9.64 21.15,-21.55c0,-11.91 -9.46,-21.55 -21.15,-21.55c-35.09,0 -63.46,28.9 -63.46,64.64c0,35.74 28.37,64.64 63.46,64.64c58.49,0 105.77,-48.15 105.77,-107.73c0,-59.58 -47.28,-107.73 -105.77,-107.73c-81.89,0 -148.1,67.41 -148.1,150.82c0,0.44 0,0.86 0,1.3h-0.36l0.69,156.74c-30.47,-2.5 -54.35,-27.97 -54.35,-59.09v-246.1c0,-32.8 26.51,-59.3 59.29,-59.3z" />
	<path style="fill: #e6e6e6" d="M637.57,334.23v71.67h-39.87v-218.15h61.68c60.44,0 93.45,9.34 93.45,69.17c0,62.64 -45.48,77.3 -76.31,77.3zM637.57,221.11v75.73h33.64c28.98,0 41.13,-9.97 41.13,-39.58c0,-24.93 -8.73,-36.14 -42.06,-36.14zM874.02,405.91v-83.83c0,-28.98 -9.05,-42.69 -30.85,-42.69c-13.07,0 -22.12,4.98 -29.28,13.4v113.13h-38.64v-233.73h38.64v86.02c9.02,-5.92 20.86,-10.6 32.4,-10.6c48.58,0 66.34,30.55 66.34,74.49v83.83zM937.88,328.31c0,-43.64 28.96,-80.72 78.8,-80.72c49.84,0 78.82,37.09 78.82,80.72c0,43.62 -28.98,80.7 -78.82,80.7c-49.84,0 -78.8,-37.09 -78.8,-80.7zM977.44,328.31c0,28.98 14.33,48.93 39.24,48.93c24.93,0 39.24,-19.95 39.24,-48.93c0,-28.98 -14.31,-48.93 -39.24,-48.93c-24.91,0 -39.24,19.95 -39.24,48.93zM1198.93,409.02h-27.72c-29.3,0 -41.74,-20.56 -41.74,-40.82v-86.31h-22.12l3.42,-31.79h18.7v-34.27l38.61,-4.05v38.33h34.27v31.79h-34.27v70.43c0,23.67 1.87,24.93 23.67,24.93h10.6zM1218.24,328.31c0,-43.64 28.98,-80.72 78.82,-80.72c49.84,0 78.8,37.09 78.8,80.72c0,43.62 -28.96,80.7 -78.8,80.7c-49.84,0 -78.82,-37.09 -78.82,-80.7zM1257.8,328.31c0,28.98 14.33,48.93 39.27,48.93c24.91,0 39.24,-19.95 39.24,-48.93c0,-28.98 -14.33,-48.93 -39.24,-48.93c-24.93,0 -39.27,19.95 -39.27,48.93zM1441.28,398.43v82.89h-38.61v-231.23h33.64l3.11,9.03c10.6,-7.16 21.18,-11.53 38.32,-11.53c49.84,0 76.33,37.09 76.33,80.72c0,43.62 -26.48,80.7 -76.33,80.7c-16.2,0 -26.17,-3.74 -36.45,-10.58zM1439.41,328.31c0,28.98 10.91,48.93 35.82,48.93c24.93,0 39.24,-19.95 39.24,-48.93c0,-28.98 -14.31,-48.93 -39.24,-48.93c-24.91,0 -35.82,19.95 -35.82,48.93zM1611.69,336.42c4.34,28.98 25.86,40.82 46.4,40.82c14.65,0 35.22,-5.92 47.97,-12.79l1.87,32.74c-11.84,6.22 -29.91,11.82 -52.03,11.82c-56.37,0 -84.41,-37.09 -84.41,-80.7c0,-43.32 26.78,-80.72 74.75,-80.72c39.27,0 68.54,26.5 68.54,67.64c0,6.85 -0.94,13.71 -2.5,21.19zM1612.61,310.23h62.94c0,-14.03 -7.18,-30.85 -28.04,-30.85c-19.94,0 -31.16,13.08 -34.9,30.85zM1871.48,409.02h-14.02c-17.44,0 -28.96,-7.16 -34.88,-18.06c-10.28,11.53 -28.98,18.06 -47.66,18.06c-24.93,0 -45.18,-17.14 -45.18,-46.75c0,-43.93 58.26,-54.83 87.56,-55.78c-0.94,-17.77 -8.1,-25.56 -28.04,-25.56c-14.02,0 -26.17,3.74 -42.69,11.84l-3.42,-31.48c18.68,-9.03 37.38,-13.71 56.68,-13.71c34.9,0 56.39,17.45 56.39,62.64v42.08c0,23.37 2.5,24.93 13.7,24.93h4.99zM1817.59,332.68c-21.8,0.92 -47.35,9.66 -47.35,28.03c0,12.79 6.23,18.71 20.88,18.71c6.84,0 18.36,-3.44 26.46,-11.24z" />
</svg>